
<svg xmlns="http://www.w3.org/2000/svg" x="0" y="0" viewBox="0 0 512 512">
    <g>
        <path d="M256,0C114.6,0,0,114.6,0,256s114.6,256,256,256s256-114.6,256-256c0-10.3-0.8-20.5-2-30.6c-8.5,5.8-18.8,9.3-30,9.3
            c-23,0-42.4-14.7-49.9-35c-13.3,8.5-29.1,13.7-46.1,13.7c-47.2,0-85.3-38.2-85.3-85.3c0-15.7,4.5-30.2,11.9-42.8l-1.3,0.2
            C279.8,85.3,256,61.5,256,32c0-11.9,4-22.8,10.6-31.6C263.1,0.3,259.6,0,256,0z M416,0c-17.7,0-32,14.3-32,32s14.3,32,32,32
            s32-14.3,32-32S433.7,0,416,0z M214.4,46.7c4.3,27.5,20.3,51.2,42.6,65.8c-0.7,5.1-1,10.3-1,15.5c0,70.6,57.4,128,128,128
            c10.6,0,21.2-1.3,31.3-4c14.6,13.3,33,22.2,53,24.7c-10.4,108-101.7,192.7-212.3,192.7c-117.7,0-213.3-95.7-213.3-213.3
            C42.7,152.6,116.7,66.1,214.4,46.7z M384,106.7c-11.8,0-21.3,9.6-21.3,21.3s9.6,21.3,21.3,21.3s21.3-9.6,21.3-21.3
            S395.8,106.7,384,106.7z M213.3,128c-11.8,0-21.3,9.6-21.3,21.3s9.6,21.3,21.3,21.3s21.3-9.6,21.3-21.3S225.1,128,213.3,128z
            M490.7,128c-11.8,0-21.3,9.6-21.3,21.3s9.6,21.3,21.3,21.3s21.3-9.6,21.3-21.3S502.4,128,490.7,128z M149.3,192
            c-23.6,0-42.7,19.1-42.7,42.7s19.1,42.7,42.7,42.7s42.7-19.1,42.7-42.7S172.9,192,149.3,192z M256,234.7
            c-11.8,0-21.3,9.6-21.3,21.3s9.6,21.3,21.3,21.3s21.3-9.6,21.3-21.3S267.8,234.7,256,234.7z M181.3,320c-17.7,0-32,14.3-32,32
            s14.3,32,32,32s32-14.3,32-32S199,320,181.3,320z M330.7,341.3c-17.7,0-32,14.3-32,32c0,17.7,14.3,32,32,32c17.7,0,32-14.3,32-32
            C362.7,355.7,348.3,341.3,330.7,341.3z"/>
    </g>
</svg>